<svg version="1.1" id="Layer_1" xmlns="http://www.w3.org/2000/svg" x="0px" y="0px"
	 viewBox="0 0 30 30" style="enable-background:new 0 0 30 30;" xml:space="preserve">
<path d="M26,10.7L15.6,2.5c-0.4-0.3-0.9-0.3-1.2,0L3.8,10.7c-0.2,0.2-0.4,0.5-0.4,0.8v12.8c0,0.9,0.3,1.7,1,2.4c0.6,0.6,1.5,1,2.4,1
	h16.3c0.9,0,1.7-0.4,2.4-1c0.6-0.6,1-1.5,1-2.4V11.5C26.5,11.2,26.4,10.9,26,10.7z M17.5,25.7h-5V16h5V25.7z M24.5,24.3
	c0,0.4-0.1,0.7-0.4,0.9s-0.6,0.4-0.9,0.4h-3.7V15c0-0.6-0.4-1-1-1h-7c-0.6,0-1,0.4-1,1v10.7H6.7c-0.4,0-0.7-0.1-0.9-0.4
	c-0.3-0.3-0.4-0.6-0.4-0.9V12l9.5-7.4l9.5,7.4C24.4,12,24.4,24.3,24.5,24.3z"/>
</svg>
