<?xml version="1.0" encoding="utf-8"?>
<!-- Generator: Adobe Illustrator 22.1.0, SVG Export Plug-In . SVG Version: 6.00 Build 0)  -->
<svg version="1.1" id="Layer_1" xmlns="http://www.w3.org/2000/svg" xmlns:xlink="http://www.w3.org/1999/xlink" x="0px" y="0px"
	 viewBox="0 0 30 30" style="enable-background:new 0 0 30 30;" xml:space="preserve">
<path d="M26.4,4.2h-7c-1.5,0-2.9,0.6-4,1.7c-0.2,0.2-0.5,0.5-0.7,0.8c-0.2-0.3-0.4-0.6-0.7-0.8l0,0c-1.1-1.1-2.5-1.7-4-1.7H3
	c-0.6,0-1,0.4-1,1v17.5c0,0.6,0.4,1,1,1h8.2c0.7,0,1.3,0.3,1.8,0.7c0.5,0.5,0.7,1.1,0.7,1.8c0,0.6,0.4,1,1,1s1-0.4,1-1
	c0-0.7,0.3-1.3,0.7-1.8s1.1-0.7,1.8-0.7h8.2c0.6,0,1-0.4,1-1V5.2C27.4,4.6,26.9,4.2,26.4,4.2z M13.7,22.5c-0.7-0.5-1.6-0.8-2.5-0.8
	H4V6.2h6c1,0,1.9,0.4,2.6,1.1c0.7,0.7,1.1,1.6,1.1,2.6C13.7,9.9,13.7,22.5,13.7,22.5z M25.4,21.7h-7.2c-0.9,0-1.8,0.3-2.5,0.8V9.9
	c0-1,0.4-1.9,1.1-2.6c0.7-0.7,1.6-1.1,2.6-1.1h6C25.4,6.2,25.4,21.7,25.4,21.7z"/>
</svg>
