<?xml version="1.0" encoding="utf-8"?>
<!-- Generator: Adobe Illustrator 22.1.0, SVG Export Plug-In . SVG Version: 6.00 Build 0)  -->
<svg version="1.1" id="Layer_1" xmlns="http://www.w3.org/2000/svg" xmlns:xlink="http://www.w3.org/1999/xlink" x="0px" y="0px"
	 viewBox="0 0 30 30" style="enable-background:new 0 0 30 30;" xml:space="preserve">
<g>
	<path d="M24.5,26.5c-0.6,0-1-0.4-1-1v-2.3c0-1-0.4-1.9-1.1-2.6c-0.7-0.7-1.7-1.1-2.7-1.1h-9.5c-1,0-2,0.4-2.7,1.1s-1.1,1.6-1.1,2.6
		v2.3c0,0.6-0.4,1-1,1s-1-0.4-1-1v-2.3c0-1.5,0.6-2.9,1.7-4s2.5-1.7,4.1-1.7h9.5c1.5,0,3,0.6,4.1,1.7s1.7,2.5,1.7,4v2.3
		C25.5,26.1,25.1,26.5,24.5,26.5z"/>
</g>
<g>
	<path d="M14.6,14.5c-3.3,0-6-2.5-6-5.5s2.7-5.5,6-5.5s6,2.5,6,5.5S17.8,14.5,14.6,14.5z M14.6,5.5c-2.2,0-4,1.6-4,3.5
		s1.8,3.5,4,3.5s4-1.6,4-3.5S16.8,5.5,14.6,5.5z"/>
</g>
</svg>
