<?xml version="1.0" encoding="utf-8"?>
<!-- Generator: Adobe Illustrator 22.1.0, SVG Export Plug-In . SVG Version: 6.00 Build 0)  -->
<svg version="1.1" id="Layer_1" xmlns="http://www.w3.org/2000/svg" xmlns:xlink="http://www.w3.org/1999/xlink" x="0px" y="0px"
	 viewBox="0 0 650 300" style="enable-background:new 0 0 650 300;" xml:space="preserve">
<style type="text/css">
	.st0{fill:#FFFFFF;}
	.st1{fill:#B0DAFF;}
	.st2{fill:#BDF6F5;}
	.st3{fill:#1F71AE;}
	.st4{fill:#D0D0D0;}
	.st5{fill:#29235C;}
	.st6{fill:#D8154A;}
	.st7{fill:#FFA083;}
	.st8{fill:#00ADB4;}
	.st9{opacity:0.5;}
	.st10{fill:#FFAE3B;}
	.st11{opacity:0.15;}
</style>
<rect y="243.2" class="st0" width="58.8" height="58.8"/>
<path class="st1" d="M649.7,300.1H40.2C18,300.1,0,282.1,0,259.9V0h649.7V300.1z"/>
<g>
	<g>
		<g>
			<path class="st2" d="M449.4,282.7c0,0-87.6,22.4-92.4-143.8C429.5,165.6,493.2,238.6,449.4,282.7z"/>
			<path class="st0" d="M401.9,254.6c12.6,8.2,26.2,14.7,40.4,19.5c-5.1-9.1-10.3-18.2-15.5-27.2c-22.4-11.1-43.8-25-61.9-42.2
				c-0.2-0.8-0.4-1.6-0.6-2.4c17.9,17.3,39.1,31.3,61.2,42.5c-7.7-13-15.6-25.9-23.6-38.7c-15.4-8.8-29.7-20.1-42.5-32.5
				c-0.1-0.7-0.2-1.4-0.2-2.1c12.4,12.2,26.2,23.3,41.1,32.1c-13.5-21.4-27.5-42.6-41.4-63.8c0.7,0.3,1.5,0.6,2.2,0.8
				c13.5,20.5,27,41,40.1,61.7c-2.7-15.5-4.8-31.3-9.1-46.5c0.6,0.3,1.1,0.7,1.7,1c4.4,15.9,6.4,32.3,9.3,48.5
				c8,12.7,15.8,25.4,23.4,38.3c-1.5-24.1-3-48-10.3-71.1c0.6,0.5,1.3,1,1.9,1.6c7.1,23.5,8.4,47.7,10,72.1c5.3,9,10.5,18,15.5,27.1
				c2.6-12.2,3.1-25.1,3.4-37.6c0.3-10.8,0.3-21.8-0.9-32.6c0.6,0.7,1.1,1.5,1.6,2.3c1,10,0.9,20.3,0.7,30.3
				c-0.3,13.1-0.8,26.7-3.8,39.5c1.4,2.5,2.8,5.1,4.2,7.7c-0.4,0.1-0.8,0.2-1.4,0.3c-1.3-2.4-2.6-4.9-4-7.3
				c-14.3-4.7-27.9-11.1-40.6-19.1c-9.5-6-18.3-12.9-27-20c-0.4-0.9-0.9-1.9-1.3-2.9C383.3,241.2,392.3,248.3,401.9,254.6z"/>
		</g>
		<g>
			<path class="st0" d="M433.3,309.5c0,0,18.3-66.5-108.5-72.4C344.2,292.8,399.1,342.3,433.3,309.5z"/>
			<path class="st2" d="M412.5,272.9c6.1,9.7,10.8,20.2,14.3,31.1c-6.9-4-13.7-8.1-20.5-12.2c-8.2-17.2-18.5-33.7-31.4-47.8
				c-0.6-0.2-1.2-0.3-1.8-0.5c13,13.9,23.3,30.2,31.6,47.3c-9.8-6-19.5-12.2-29.2-18.5c-6.5-11.9-15-22.9-24.3-32.8
				c-0.5-0.1-1.1-0.1-1.6-0.2c9.1,9.6,17.4,20.3,24,31.8c-16.2-10.6-32.2-21.5-48.1-32.4c0.2,0.6,0.4,1.1,0.6,1.7
				c15.4,10.6,30.9,21.1,46.6,31.4c-11.8-2.3-23.8-4.1-35.3-7.6c0.3,0.4,0.5,0.9,0.8,1.3c12.1,3.5,24.6,5.3,36.9,7.7
				c9.6,6.2,19.2,12.4,28.9,18.3c-18.4-1.5-36.5-2.9-54.1-8.8c0.4,0.5,0.8,1,1.2,1.5c17.8,5.7,36.2,7,54.9,8.5
				c6.8,4.1,13.6,8.2,20.5,12.2c-9.4,1.8-19.2,2-28.7,2.1c-8.2,0.1-16.6,0-24.9-1.1c0.6,0.4,1.1,0.8,1.7,1.3
				c7.6,0.9,15.4,0.9,23.1,0.9c10,0,20.4-0.3,30.2-2.4c1.9,1.1,3.9,2.2,5.8,3.3c0.1-0.3,0.1-0.6,0.2-1.1c-1.8-1-3.7-2.1-5.5-3.1
				c-3.4-11-8.1-21.4-14.1-31.2c-4.5-7.3-9.6-14.2-14.9-20.8c-0.7-0.3-1.4-0.7-2.2-1C402.5,258.5,407.8,265.5,412.5,272.9z"/>
		</g>
		<g>
			<path class="st2" d="M517.7,276c0,0,79.7,42.7,124.2-117.5C565,167,485.7,222.7,517.7,276z"/>
			<path class="st0" d="M570.5,260.1c-14.2,5-28.9,8-43.9,9.2c7.1-7.7,14.3-15.2,21.6-22.7c24.4-5.4,48.5-13.8,70.2-26.1
				c0.4-0.7,0.8-1.5,1.1-2.2c-21.5,12.5-45.4,21-69.6,26.6c10.6-10.8,21.3-21.4,32.2-31.9c17.1-4.9,33.6-12.4,49-21.4
				c0.2-0.7,0.5-1.3,0.7-2c-14.9,8.9-31,16.4-47.6,21.4c18.3-17.6,36.9-34.8,55.5-52c-0.8,0.1-1.6,0.2-2.3,0.3
				c-18,16.7-36,33.4-53.7,50.4c6.4-14.4,12.1-29.2,20-43c-0.6,0.2-1.3,0.4-1.9,0.6c-8,14.4-13.9,29.9-20.7,44.9
				c-10.8,10.4-21.4,20.9-31.9,31.6c7.3-23.1,14.3-45.9,27-66.5c-0.7,0.3-1.5,0.7-2.2,1.1c-12.5,21.1-19.5,44.3-26.9,67.7
				c-7.3,7.5-14.5,15-21.6,22.6c0.4-12.5,3-25.1,5.7-37.3c2.3-10.5,4.9-21.3,8.7-31.5c-0.7,0.6-1.4,1.2-2.1,1.8
				c-3.3,9.5-5.7,19.5-7.9,29.2c-2.9,12.8-5.6,26.1-5.8,39.3c-2,2.1-3.9,4.3-5.9,6.4c0.3,0.2,0.8,0.4,1.3,0.6c1.9-2,3.7-4.1,5.6-6.1
				c15-1.1,29.7-4.1,44-8.8c10.6-3.6,20.9-8.1,31-13c0.7-0.8,1.3-1.6,1.9-2.5C591.8,251.5,581.4,256.2,570.5,260.1z"/>
		</g>
		<g>
			<path class="st0" d="M534.6,319.1c0,0-22.6-65.2,103.4-79.4C622.4,296.5,570.9,349.6,534.6,319.1z"/>
			<path class="st2" d="M553,281.2c-5.5,10.1-9.5,20.8-12.2,32c6.6-4.4,13.2-9,19.7-13.6c7-17.7,16.2-34.9,28.1-49.8
				c0.6-0.2,1.2-0.4,1.8-0.6c-12,14.7-21.3,31.7-28.4,49.2c9.4-6.7,18.7-13.5,27.9-20.4c5.7-12.3,13.4-23.8,22-34.3
				c0.5-0.1,1.1-0.2,1.6-0.3c-8.5,10.2-16.1,21.4-21.8,33.3c15.4-11.7,30.7-23.6,45.9-35.5c-0.2,0.6-0.3,1.1-0.5,1.7
				c-14.7,11.6-29.5,23.1-44.4,34.4c11.6-3.1,23.5-5.6,34.8-9.9c-0.2,0.5-0.5,0.9-0.7,1.4c-11.8,4.3-24.2,6.9-36.3,10.2
				c-9.1,6.9-18.3,13.6-27.6,20.2c18.2-2.7,36.3-5.3,53.4-12.4c-0.4,0.5-0.7,1-1.1,1.5c-17.4,6.9-35.7,9.4-54.2,12.2
				c-6.5,4.6-13,9.1-19.6,13.5c9.5,1.2,19.3,0.8,28.8,0.2c8.2-0.5,16.6-1.1,24.7-2.8c-0.5,0.5-1.1,0.9-1.6,1.4
				c-7.6,1.4-15.3,2-23,2.4c-10,0.6-20.3,1.1-30.3-0.4c-1.8,1.2-3.7,2.4-5.6,3.7c-0.1-0.3-0.2-0.6-0.3-1.1c1.8-1.2,3.5-2.3,5.3-3.5
				c2.7-11.2,6.6-21.9,11.9-32.1c4-7.6,8.6-14.8,13.5-21.8c0.7-0.4,1.4-0.8,2.1-1.2C562,266.2,557.1,273.5,553,281.2z"/>
		</g>
		<g>
			<path class="st0" d="M486.8,263.1c0,0,110.9-6.4,54.7-202.8C466.5,118.6,419.1,227.8,486.8,263.1z"/>
			<path class="st2" d="M531.9,212.5c-11.7,14.3-25.6,27.7-40.5,38.6c2.5-12.6,5.6-26.4,8.5-38.9c22-21.3,42-45,56.8-72
				c-0.1-1-0.1-1-0.2-2c-14.5,26.9-34.7,51.2-56.5,72.6c4.2-18.1,9.1-37.7,13.8-55.7c14.8-16.1,27.3-34.1,37.7-53.4
				c-0.2-0.8-0.2-0.9-0.3-1.7c-10,18.9-22.7,37.2-36.9,53c7.9-30.1,18.8-62.7,27.2-92.7c-0.8,0.6-0.7,0.5-1.4,1.1
				c-8.2,29-19.1,61.3-26.7,90.5c-2.6-19.2-6.6-38.9-7.2-58.3c-0.5,0.6-0.5,0.6-1.1,1.2c0.8,20.2,4.9,39.9,7.5,59.9
				c-4.6,17.8-9.3,37.4-13.4,55.3c-7.2-28.8-15-57.8-15-87.6c-0.6,0.8-0.5,0.8-1.1,1.7c0.4,30.1,8.2,58.6,15.4,87.9
				c-2.8,12.5-5.8,25.8-8.3,38.4c-7.6-13.4-13-28.8-18-43.2c-4.3-12.5-8.9-24.2-11.5-37.4c-0.4,1.1-0.3,1-0.7,2.1
				c2.6,12.1,6.5,24,10.5,35.7c5.2,15.2,11.1,31.1,19.4,45c-0.7,3.5-1.6,6.9-2.3,10.4c0.4,0,1-0.1,1.8-0.2c0.6-3.3,1-6.6,1.7-9.9
				c15-10.8,28.8-23.4,40.7-37.6c8.8-10.6,16.7-21.9,24.1-33.5c0.2-1.3,0.2-1.2,0.3-2.5C548.7,191.2,540.9,201.5,531.9,212.5z"/>
		</g>
	</g>
	<g>
		
			<image style="overflow:visible;opacity:0.3;" width="257" height="310" xlink:href="FC7C8AB9655C9C77.png"  transform="matrix(1 0 0 1 353.65 14.65)">
		</image>
		<g>
			<g>
				<g>
					<g>
						<g>
							<path class="st3" d="M575.3,265.6h-179h-2.3c0,0-1.4,0.6-1.4,3.4c0,3.1,1.4,3.5,1.4,3.5h2.3h76.4v19h-76.4h-2.3
								c0,0-1.4,0.6-1.4,3.4c0,3.1,1.4,3.5,1.4,3.5h2.3h179c0,0,8.8-2.7,8.8-16.4C584.1,268.9,575.3,265.6,575.3,265.6z"/>
						</g>
						<g>
							<path class="st0" d="M521.5,291.5H399.1v-19h122.4c0,0,5.6,1.5,5.6,9.5C527.1,290.2,521.5,291.5,521.5,291.5z"/>
						</g>
						<rect x="399.1" y="276.7" class="st4" width="92.8" height="1.9"/>
						<rect x="399.1" y="285.8" class="st4" width="88.2" height="2.1"/>
						<g>
							<path class="st5" d="M584.1,282c0-13-8.8-16.4-8.8-16.4h-48.9c0,0,8.8,3.4,8.8,16.4c0,13.7-8.8,16.4-8.8,16.4h48.9
								C575.3,298.4,584.1,295.7,584.1,282z"/>
						</g>
					</g>
					<g>
						<g>
							<path class="st6" d="M388.3,232.7h179h2.3c0,0,1.4,0.6,1.4,3.4c0,3.1-1.4,3.5-1.4,3.5h-2.3h-76.4v19h76.4h2.3
								c0,0,1.4,0.6,1.4,3.4c0,3.1-1.4,3.5-1.4,3.5h-2.3h-179c0,0-8.8-2.7-8.8-16.4C379.5,236.1,388.3,232.7,388.3,232.7z"/>
						</g>
						<g>
							<path class="st0" d="M442.1,258.6h122.4v-19H442.1c0,0-5.6,1.5-5.6,9.5C436.5,257.3,442.1,258.6,442.1,258.6z"/>
						</g>
						<rect x="471.8" y="243.9" class="st4" width="92.8" height="1.9"/>
						<rect x="476.3" y="252.9" class="st4" width="88.2" height="2.1"/>
						<g>
							<path class="st7" d="M379.5,249.1c0-13,8.8-16.4,8.8-16.4h48.9c0,0-8.8,3.4-8.8,16.4c0,13.7,8.8,16.4,8.8,16.4h-48.9
								C388.3,265.6,379.5,262.8,379.5,249.1z"/>
						</g>
					</g>
					<g>
						<g>
							<path class="st8" d="M575.3,199.9h-179h-2.3c0,0-1.4,0.6-1.4,3.4c0,3.1,1.4,3.5,1.4,3.5h2.3h76.4v19h-76.4h-2.3
								c0,0-1.4,0.6-1.4,3.4c0,3.1,1.4,3.5,1.4,3.5h2.3h179c0,0,8.8-2.7,8.8-16.4C584.1,203.3,575.3,199.9,575.3,199.9z"/>
						</g>
						<g>
							<path class="st0" d="M521.5,225.8H399.1v-19h122.4c0,0,5.6,1.5,5.6,9.5C527.1,224.5,521.5,225.8,521.5,225.8z"/>
						</g>
						<rect x="399.1" y="211.1" class="st4" width="92.8" height="1.9"/>
						<rect x="399.1" y="220.1" class="st4" width="88.2" height="2.1"/>
						<g>
							<path class="st3" d="M584.1,216.3c0-13-8.8-16.4-8.8-16.4h-48.9c0,0,8.8,3.4,8.8,16.4c0,13.7-8.8,16.4-8.8,16.4h48.9
								C575.3,232.7,584.1,230,584.1,216.3z"/>
						</g>
					</g>
				</g>
				<g>
					<g>
						<g>
							
								<rect x="438.8" y="59.2" transform="matrix(0.9523 -0.3052 0.3052 0.9523 -17.7611 142.463)" class="st3" width="15.9" height="137.7"/>
						</g>
						<g>
							
								<rect x="419.7" y="68.9" transform="matrix(0.9523 -0.3051 0.3051 0.9523 -1.0131 132.0976)" class="st5" width="5" height="0.8"/>
						</g>
						<g>
							
								<rect x="418.8" y="66.1" transform="matrix(0.9523 -0.3052 0.3052 0.9523 -0.1843 131.7554)" class="st5" width="5" height="0.8"/>
						</g>
						<g>
							
								<rect x="420.6" y="71.8" transform="matrix(0.9522 -0.3055 0.3055 0.9522 -1.838 132.7203)" class="st5" width="5" height="0.8"/>
						</g>
						<g>
							<polygon class="st5" points="426.5,74.7 421.8,76.3 421.6,75.5 426.3,74 							"/>
						</g>
						<g>
							
								<rect x="422.4" y="77.3" transform="matrix(0.9523 -0.3052 0.3052 0.9523 -3.381 133.7301)" class="st5" width="7.2" height="0.8"/>
						</g>
						<g>
							<polygon class="st5" points="429.4,83.6 424.6,85.1 424.4,84.4 429.1,82.8 							"/>
						</g>
						<g>
							
								<rect x="423.5" y="80.8" transform="matrix(0.9522 -0.3054 0.3054 0.9522 -4.4324 133.9736)" class="st5" width="5" height="0.8"/>
						</g>
						<g>
							
								<rect x="425.3" y="86.5" transform="matrix(0.9522 -0.3053 0.3053 0.9522 -6.1083 134.7828)" class="st5" width="5" height="0.8"/>
						</g>
						<g>
							<polygon class="st5" points="431.3,89.4 426.5,90.9 426.3,90.2 431,88.7 							"/>
						</g>
						<g>
							<polygon class="st5" points="434.3,91.6 427.4,93.8 427.2,93.1 434.1,90.9 							"/>
						</g>
						<g>
							
								<rect x="429.1" y="98.1" transform="matrix(0.9522 -0.3053 0.3053 0.9522 -9.4755 136.4733)" class="st5" width="5" height="0.8"/>
						</g>
						<g>
							<polygon class="st5" points="433.1,95.3 428.4,96.8 428.2,96.1 432.9,94.6 							"/>
						</g>
						<g>
							
								<rect x="430" y="101.1" transform="matrix(0.9523 -0.3052 0.3052 0.9523 -10.3329 136.8503)" class="st5" width="5" height="0.8"/>
						</g>
						<g>
							
								<rect x="430.9" y="104" transform="matrix(0.9523 -0.3053 0.3053 0.9523 -11.1653 137.2978)" class="st5" width="5" height="0.8"/>
						</g>
						<g>
							
								<rect x="431.8" y="106.5" transform="matrix(0.9523 -0.3052 0.3052 0.9523 -11.858 137.9729)" class="st5" width="7.2" height="0.8"/>
						</g>
						<g>
							
								<rect x="433.8" y="112.8" transform="matrix(0.9522 -0.3053 0.3053 0.9522 -13.7351 138.6094)" class="st5" width="5" height="0.8"/>
						</g>
						<g>
							
								<rect x="432.9" y="110" transform="matrix(0.9522 -0.3053 0.3053 0.9522 -12.9161 138.2007)" class="st5" width="5" height="0.8"/>
						</g>
						<g>
							
								<rect x="434.7" y="115.8" transform="matrix(0.9523 -0.3052 0.3052 0.9523 -14.5908 138.988)" class="st5" width="5" height="0.8"/>
						</g>
						<g>
							
								<rect x="435.6" y="118.6" transform="matrix(0.9523 -0.3051 0.3051 0.9523 -15.4278 139.3515)" class="st5" width="5" height="0.8"/>
						</g>
						<g>
							<polygon class="st5" points="443.7,120.9 436.8,123.1 436.6,122.3 443.4,120.1 							"/>
						</g>
						<g>
							
								<rect x="438.4" y="127.3" transform="matrix(0.9523 -0.3052 0.3052 0.9523 -17.9238 140.6312)" class="st5" width="5" height="0.8"/>
						</g>
						<g>
							
								<rect x="437.5" y="124.4" transform="matrix(0.9522 -0.3053 0.3053 0.9522 -17.1026 140.3028)" class="st5" width="5" height="0.8"/>
						</g>
						<g>
							
								<rect x="439.3" y="130.2" transform="matrix(0.9522 -0.3055 0.3055 0.9522 -18.773 141.2171)" class="st5" width="5" height="0.8"/>
						</g>
						<g>
							
								<rect x="440.3" y="133.1" transform="matrix(0.9522 -0.3054 0.3054 0.9522 -19.6086 141.6181)" class="st5" width="5" height="0.8"/>
						</g>
						<g>
							
								<rect x="441.1" y="135.6" transform="matrix(0.9523 -0.3052 0.3052 0.9523 -20.2988 142.2439)" class="st5" width="7.2" height="0.8"/>
						</g>
						<g>
							<polygon class="st5" points="448.1,142 443.3,143.5 443.1,142.7 447.8,141.2 							"/>
						</g>
						<g>
							
								<rect x="442.2" y="139.1" transform="matrix(0.9522 -0.3054 0.3054 0.9522 -21.3617 142.4985)" class="st5" width="5" height="0.8"/>
						</g>
						<g>
							
								<rect x="444" y="144.9" transform="matrix(0.9523 -0.3052 0.3052 0.9523 -23.0337 143.1965)" class="st5" width="5" height="0.8"/>
						</g>
						<g>
							
								<rect x="445" y="147.8" transform="matrix(0.9523 -0.3051 0.3051 0.9523 -23.8677 143.569)" class="st5" width="5" height="0.8"/>
						</g>
						<g>
							<polygon class="st5" points="453,150 446.1,152.2 445.9,151.4 452.8,149.2 							"/>
						</g>
						<g>
							
								<rect x="447.8" y="156.5" transform="matrix(0.9523 -0.3052 0.3052 0.9523 -26.3992 144.8858)" class="st5" width="5" height="0.8"/>
						</g>
						<g>
							
								<rect x="446.9" y="153.7" transform="matrix(0.9523 -0.3051 0.3051 0.9523 -25.5798 144.42)" class="st5" width="5" height="0.8"/>
						</g>
						<g>
							
								<rect x="448.7" y="159.4" transform="matrix(0.9522 -0.3054 0.3054 0.9522 -27.2567 145.4587)" class="st5" width="5" height="0.8"/>
						</g>
						<g>
							
								<rect x="449.6" y="162.3" transform="matrix(0.9523 -0.3051 0.3051 0.9523 -28.0856 145.7053)" class="st5" width="5" height="0.8"/>
						</g>
						<g>
							
								<rect x="450.5" y="164.9" transform="matrix(0.9523 -0.3053 0.3053 0.9523 -28.7769 146.5132)" class="st5" width="7.2" height="0.8"/>
						</g>
						<g>
							
								<rect x="452.5" y="171.2" transform="matrix(0.9523 -0.3051 0.3051 0.9523 -30.6554 146.9947)" class="st5" width="5" height="0.8"/>
						</g>
						<g>
							
								<rect x="451.6" y="168.4" transform="matrix(0.9523 -0.3052 0.3052 0.9523 -29.8382 146.6094)" class="st5" width="5" height="0.8"/>
						</g>
						<g>
							
								<rect x="453.4" y="174.1" transform="matrix(0.9521 -0.3057 0.3057 0.9521 -31.5259 147.7487)" class="st5" width="5" height="0.8"/>
						</g>
						<g>
							
								<rect x="454.3" y="177" transform="matrix(0.9524 -0.3048 0.3048 0.9524 -32.3312 147.6739)" class="st5" width="5" height="0.8"/>
						</g>
						<g>
							
								<rect x="455.2" y="179.6" transform="matrix(0.9523 -0.3052 0.3052 0.9523 -33.0344 148.6395)" class="st5" width="7.2" height="0.8"/>
						</g>
						<g>
							
								<rect x="452" y="59.4" transform="matrix(0.9522 -0.3054 0.3054 0.9522 -16.9636 144.1901)" class="st5" width="0.8" height="133.8"/>
						</g>
					</g>
					<g>
						<g>
							<rect x="462.4" y="56.8" class="st7" width="13" height="92.4"/>
						</g>
						<g>
							<polygon class="st0" points="475.4,56.8 468.9,40.3 462.4,56.8 							"/>
						</g>
						<g>
							<path class="st5" d="M467.3,44.2l1.5-3.9l1.5,3.9C470.4,44.2,469.3,45.4,467.3,44.2z"/>
						</g>
						<g class="st9">
							<rect x="467.3" y="56.8" class="st6" width="3.1" height="92.4"/>
						</g>
					</g>
					<g>
						<g>
							
								<rect x="428.5" y="135.6" transform="matrix(0.4364 -0.8998 0.8998 0.4364 139.7122 507.1691)" class="st6" width="92.4" height="13"/>
						</g>
						<polygon class="st4" points="500.7,103.3 502.1,85.6 489,97.7 						"/>
						<g>
							<path class="st5" d="M499,88.5l3.1-2.9l-0.3,4.2C501.7,89.8,500.2,90.4,499,88.5z"/>
						</g>
						<g>
							
								<rect x="428.5" y="140.5" transform="matrix(0.4367 -0.8996 0.8996 0.4367 139.6007 507.0668)" class="st5" width="92.4" height="3.1"/>
						</g>
					</g>
					<g>
						<polygon class="st10" points="486.4,196.9 441.6,196.9 434.5,122.5 493.2,122.5 						"/>
					</g>
					<g>
						<rect x="443.7" y="196.9" class="st0" width="41" height="3"/>
					</g>
				</g>
				<g>
					<rect x="507.6" y="184.3" class="st4" width="33.5" height="15.6"/>
					<g>
						<rect x="522.3" y="184.3" class="st5" width="18.7" height="15.6"/>
					</g>
					<g>
						<rect x="526.2" y="184.3" class="st6" width="3.1" height="15.6"/>
					</g>
				</g>
			</g>
		</g>
	</g>
	<g>
		<g>
			<g class="st11">
				<rect x="547.6" y="131.4" class="st5" width="32.6" height="32.6"/>
			</g>
			<g>
				<rect x="540.8" y="124.6" class="st7" width="32.6" height="32.6"/>
			</g>
		</g>
		<g>
			<g>
				<g>
					<polygon class="st5" points="558.2,152 547.8,136.2 551.2,134 557.6,143.8 574.6,107.1 578.2,108.8 					"/>
				</g>
			</g>
		</g>
	</g>
</g>
</svg>
