<svg version="1.1" id="Layer_1" xmlns="http://www.w3.org/2000/svg" x="0px" y="0px"
	 viewBox="0 0 30 30" xml:space="preserve">
<g>
	<path d="M15,27.1c-6.6,0-12-5.4-12-12s5.4-12,12-12c6.6,0,12,5.4,12,12S21.6,27.1,15,27.1z M15,5.2c-5.5,0-10,4.5-10,10
		c0,5.5,4.5,10,10,10s10-4.5,10-10C24.9,9.6,20.5,5.2,15,5.2z"/>
</g>
<g>
	<path d="M14.8,20.5c-0.3,0-0.6-0.1-0.8-0.3l-4.7-5.3c-0.4-0.4-0.3-1,0.1-1.4c0.4-0.4,1-0.3,1.4,0.1l3.8,4.3l4.7-7.4
		c0.3-0.5,0.9-0.6,1.4-0.3c0.5,0.3,0.6,0.9,0.3,1.4L15.6,20C15.4,20.3,15.2,20.4,14.8,20.5C14.8,20.5,14.8,20.5,14.8,20.5z"/>
</g>
</svg>
